<svg version="1.2" xmlns="http://www.w3.org/2000/svg" viewBox="0 0 248 223" width="248" height="223">
	<title>טקסט הפסקה שלך</title>
	<defs>
		<clipPath clipPathUnits="userSpaceOnUse" id="cp1">
			<path d="m4 11.07h237.39v205.93h-237.39z"/>
		</clipPath>
	</defs>
	<style>
		.s0 { fill: #24a9c5 } 
	</style>
	<g id="Clip-Path" clip-path="url(#cp1)">
		<g>
			<path class="s0" d="m140.2 186.1c10.6 20.6-18.3 41.3-33.5 22.8-16.2-20.4 20.2-45.3 33.5-22.8zm99.9-134.1c-0.7-1-1.8-1.7-2.6-2.6-2.8-2.6-6.1-4.5-9.3-6.7-6.1-4.2-12.3-8.4-19-11.6-12.1-5.9-24.4-11.8-37.6-14.9-14.3-3.5-29-4.9-43.7-4.7-24.3-0.2-48.5 4.2-71.6 11.7-12.3 4.1-24.2 9.3-35.6 15.5-5.4 3-10.8 6.2-15.3 10.5-0.3 0.3-0.6 0.5-0.8 0.8-0.5 0.5-0.8 1.2-0.4 1.9 5.1 6.8 11.3 14.4 16.1 22.7 6.7 10.7 6.1 12.3 15.2 4.3 9.1-8 50.6-25.9 81-26.8 14.8-0.4 59.9 0 102.8 29.9 1.1 0.8 2.7 0.5 3.6-0.5 0.7-1 1.3-2.1 1.9-3.1 1.1-1.9 2.2-3.7 3.4-5.5 4.1-6 8.7-11.7 12.6-17.9 0.6-1 0.2-2.3-0.7-3zm-63.4 78.6c-16.4-8.7-33.9-16.1-52.3-16.4-9.6 0.1-19.3 0.9-28.4 4.2-12.1 4.6-24.1 9.7-30.9 18.5-3.3 3.3-3.3 5-0.7 9.9 2.5 5.1 7.3 15 9.8 18.3 1.2 1.6 29-15.6 51.2-12.6 4.3 0.6 10 1.3 15.6 2.9 5.2 1.7 7.8 2.8 12.3 5.1 8.1 4.4 7.3 7.4 14.5-1 4.8-6 4.7-5.3 9.7-12.3 1.7-2.6 3.8-4.9 4.9-7.9 0.9-3.9-2.5-7-5.7-8.7zm26.3-43.4c-46.3-25.4-98.8-36.9-162 3.8-11 7.1-7.9 6.3-4.6 11.6 3 4.9 7.8 12.7 11.6 19.8 0.8 1.3 1.2 3 2.4 4 2.1 1.3 4.8 0.4 6.9-0.6 3.7-2.1 7.4-4.4 11.2-6.5 7.2-4.1 14.5-8.1 20.9-10.5 45.7-16.7 79.9 7.3 86.6 11.1 2.5 1.4 5 2.9 7.4 4.7 2.1 1.4 4.3 4 6.7 1.4 1.9-1.9 3.3-4.1 5-6.1 2.2-2.8 4.6-5.4 6.8-8.2 3.4-4.3 6.1-9.1 9.2-13.6 2.6-4.6-2.5-7.8-8.1-10.9z"/>
		</g>
	</g>
</svg>